# xmcd CD database file
#
# Track frame offsets:
#	150
#	27372
#	50502
#	71150
#	86922
#	114987
#	134187
#	160402
#
# Disc length: 2292 seconds
#
# Revision: 1
# Processed by: cddbd v1.5.2PL0 Copyright (c) Steve Scherf et al.
# Submitted via: CDex 1.51
#
DISCID=7608f208
DTITLE=Tadeusz Nalepa - Sen Szalenca
DYEAR=1987
DGENRE=Blues
TTITLE0=Na Wysoka Gore Wchodze
TTITLE1=Moj Dom Umiera
TTITLE2=Kim Bez Ciebie Jestem
TTITLE3=Sen Szalenca
TTITLE4=Musze Dzis Ciebie Zabic
TTITLE5=Oni Mnie Wyrecza W Tym
TTITLE6=Musisz Klamstwem Karmic Ich
TTITLE7=Kly Wilczycy
EXTD=YEAR: 1987
EXTT0=
EXTT1=
EXTT2=
EXTT3=
EXTT4=
EXTT5=
EXTT6=
EXTT7=
PLAYORDER=
